<mxfile host="app.diagrams.net" modified="2023-01-25T07:51:34.253Z" agent="5.0 (Windows NT 10.0; Win64; x64) AppleWebKit/537.36 (KHTML, like Gecko) Chrome/109.0.0.0 Safari/537.36" etag="gm7HHBr-3NczvHRT1tK4" version="20.8.11" type="github">
  <diagram id="C5RBs43oDa-KdzZeNtuy" name="Page-1">
    <mxGraphModel dx="874" dy="1631" grid="1" gridSize="10" guides="1" tooltips="1" connect="1" arrows="1" fold="1" page="1" pageScale="1" pageWidth="827" pageHeight="1169" math="0" shadow="0">
      <root>
        <mxCell id="WIyWlLk6GJQsqaUBKTNV-0" />
        <mxCell id="WIyWlLk6GJQsqaUBKTNV-1" parent="WIyWlLk6GJQsqaUBKTNV-0" />
        <mxCell id="MhJgOWiJ7qTVM3ngr71t-4" style="edgeStyle=orthogonalEdgeStyle;rounded=0;orthogonalLoop=1;jettySize=auto;html=1;exitX=0.5;exitY=1;exitDx=0;exitDy=0;entryX=0.5;entryY=0;entryDx=0;entryDy=0;" edge="1" parent="WIyWlLk6GJQsqaUBKTNV-1" source="MhJgOWiJ7qTVM3ngr71t-0" target="MhJgOWiJ7qTVM3ngr71t-3">
          <mxGeometry relative="1" as="geometry" />
        </mxCell>
        <mxCell id="MhJgOWiJ7qTVM3ngr71t-0" value="start" style="ellipse;whiteSpace=wrap;html=1;" vertex="1" parent="WIyWlLk6GJQsqaUBKTNV-1">
          <mxGeometry x="360" y="-130" width="120" height="80" as="geometry" />
        </mxCell>
        <mxCell id="MhJgOWiJ7qTVM3ngr71t-7" value="" style="edgeStyle=orthogonalEdgeStyle;rounded=0;orthogonalLoop=1;jettySize=auto;html=1;endArrow=none;startArrow=none;" edge="1" parent="WIyWlLk6GJQsqaUBKTNV-1" source="MhJgOWiJ7qTVM3ngr71t-3" target="MhJgOWiJ7qTVM3ngr71t-5">
          <mxGeometry relative="1" as="geometry">
            <mxPoint x="420" y="-60" as="sourcePoint" />
            <mxPoint x="420" y="300" as="targetPoint" />
            <Array as="points">
              <mxPoint x="420" y="50" />
              <mxPoint x="420" y="50" />
            </Array>
          </mxGeometry>
        </mxCell>
        <mxCell id="MhJgOWiJ7qTVM3ngr71t-16" style="edgeStyle=orthogonalEdgeStyle;rounded=0;orthogonalLoop=1;jettySize=auto;html=1;exitX=0.5;exitY=1;exitDx=0;exitDy=0;" edge="1" parent="WIyWlLk6GJQsqaUBKTNV-1" source="MhJgOWiJ7qTVM3ngr71t-5">
          <mxGeometry relative="1" as="geometry">
            <mxPoint x="420" y="160" as="targetPoint" />
          </mxGeometry>
        </mxCell>
        <mxCell id="MhJgOWiJ7qTVM3ngr71t-5" value="INPUT&lt;br&gt;get value of a, get value of b, get value of c" style="shape=parallelogram;perimeter=parallelogramPerimeter;whiteSpace=wrap;html=1;fixedSize=1;" vertex="1" parent="WIyWlLk6GJQsqaUBKTNV-1">
          <mxGeometry x="285" y="60" width="270" height="60" as="geometry" />
        </mxCell>
        <mxCell id="MhJgOWiJ7qTVM3ngr71t-8" value="" style="edgeStyle=orthogonalEdgeStyle;rounded=0;orthogonalLoop=1;jettySize=auto;html=1;startArrow=none;endArrow=none;" edge="1" parent="WIyWlLk6GJQsqaUBKTNV-1" source="MhJgOWiJ7qTVM3ngr71t-5" target="MhJgOWiJ7qTVM3ngr71t-6">
          <mxGeometry relative="1" as="geometry">
            <mxPoint x="420" y="100" as="sourcePoint" />
            <mxPoint x="420" y="300" as="targetPoint" />
          </mxGeometry>
        </mxCell>
        <mxCell id="MhJgOWiJ7qTVM3ngr71t-12" value="false" style="edgeStyle=orthogonalEdgeStyle;rounded=0;orthogonalLoop=1;jettySize=auto;html=1;" edge="1" parent="WIyWlLk6GJQsqaUBKTNV-1" source="MhJgOWiJ7qTVM3ngr71t-6" target="MhJgOWiJ7qTVM3ngr71t-11">
          <mxGeometry relative="1" as="geometry" />
        </mxCell>
        <mxCell id="MhJgOWiJ7qTVM3ngr71t-14" value="true" style="edgeStyle=orthogonalEdgeStyle;rounded=0;orthogonalLoop=1;jettySize=auto;html=1;" edge="1" parent="WIyWlLk6GJQsqaUBKTNV-1" source="MhJgOWiJ7qTVM3ngr71t-6" target="MhJgOWiJ7qTVM3ngr71t-13">
          <mxGeometry x="-0.1111" relative="1" as="geometry">
            <mxPoint as="offset" />
          </mxGeometry>
        </mxCell>
        <mxCell id="MhJgOWiJ7qTVM3ngr71t-6" value="a &amp;gt; b" style="rhombus;whiteSpace=wrap;html=1;" vertex="1" parent="WIyWlLk6GJQsqaUBKTNV-1">
          <mxGeometry x="380" y="160" width="80" height="80" as="geometry" />
        </mxCell>
        <mxCell id="MhJgOWiJ7qTVM3ngr71t-9" value="" style="edgeStyle=orthogonalEdgeStyle;rounded=0;orthogonalLoop=1;jettySize=auto;html=1;endArrow=none;" edge="1" parent="WIyWlLk6GJQsqaUBKTNV-1" source="MhJgOWiJ7qTVM3ngr71t-0" target="MhJgOWiJ7qTVM3ngr71t-3">
          <mxGeometry relative="1" as="geometry">
            <mxPoint x="420" y="-60" as="sourcePoint" />
            <mxPoint x="420" y="60" as="targetPoint" />
            <Array as="points" />
          </mxGeometry>
        </mxCell>
        <mxCell id="MhJgOWiJ7qTVM3ngr71t-10" style="edgeStyle=orthogonalEdgeStyle;rounded=0;orthogonalLoop=1;jettySize=auto;html=1;exitX=0.5;exitY=1;exitDx=0;exitDy=0;" edge="1" parent="WIyWlLk6GJQsqaUBKTNV-1" source="MhJgOWiJ7qTVM3ngr71t-3">
          <mxGeometry relative="1" as="geometry">
            <mxPoint x="420" y="60" as="targetPoint" />
          </mxGeometry>
        </mxCell>
        <mxCell id="MhJgOWiJ7qTVM3ngr71t-3" value="Declare a,b,c" style="shape=hexagon;perimeter=hexagonPerimeter2;whiteSpace=wrap;html=1;fixedSize=1;" vertex="1" parent="WIyWlLk6GJQsqaUBKTNV-1">
          <mxGeometry x="305" y="-10" width="230" height="30" as="geometry" />
        </mxCell>
        <mxCell id="MhJgOWiJ7qTVM3ngr71t-28" style="edgeStyle=orthogonalEdgeStyle;rounded=0;orthogonalLoop=1;jettySize=auto;html=1;exitX=1;exitY=0.5;exitDx=0;exitDy=0;entryX=0.5;entryY=0;entryDx=0;entryDy=0;" edge="1" parent="WIyWlLk6GJQsqaUBKTNV-1" source="MhJgOWiJ7qTVM3ngr71t-11" target="MhJgOWiJ7qTVM3ngr71t-26">
          <mxGeometry relative="1" as="geometry" />
        </mxCell>
        <mxCell id="MhJgOWiJ7qTVM3ngr71t-30" value="true" style="edgeLabel;html=1;align=center;verticalAlign=middle;resizable=0;points=[];" vertex="1" connectable="0" parent="MhJgOWiJ7qTVM3ngr71t-28">
          <mxGeometry x="-0.0364" y="-1" relative="1" as="geometry">
            <mxPoint as="offset" />
          </mxGeometry>
        </mxCell>
        <mxCell id="MhJgOWiJ7qTVM3ngr71t-29" value="false" style="edgeStyle=orthogonalEdgeStyle;rounded=0;orthogonalLoop=1;jettySize=auto;html=1;exitX=0;exitY=0.5;exitDx=0;exitDy=0;entryX=0.583;entryY=0;entryDx=0;entryDy=0;entryPerimeter=0;" edge="1" parent="WIyWlLk6GJQsqaUBKTNV-1" source="MhJgOWiJ7qTVM3ngr71t-11" target="MhJgOWiJ7qTVM3ngr71t-27">
          <mxGeometry relative="1" as="geometry" />
        </mxCell>
        <mxCell id="MhJgOWiJ7qTVM3ngr71t-11" value="b &amp;gt; c" style="rhombus;whiteSpace=wrap;html=1;" vertex="1" parent="WIyWlLk6GJQsqaUBKTNV-1">
          <mxGeometry x="180" y="270" width="80" height="80" as="geometry" />
        </mxCell>
        <mxCell id="MhJgOWiJ7qTVM3ngr71t-21" value="true" style="edgeStyle=orthogonalEdgeStyle;rounded=0;orthogonalLoop=1;jettySize=auto;html=1;exitX=1;exitY=0.5;exitDx=0;exitDy=0;entryX=0.5;entryY=0;entryDx=0;entryDy=0;" edge="1" parent="WIyWlLk6GJQsqaUBKTNV-1" source="MhJgOWiJ7qTVM3ngr71t-13" target="MhJgOWiJ7qTVM3ngr71t-17">
          <mxGeometry relative="1" as="geometry" />
        </mxCell>
        <mxCell id="MhJgOWiJ7qTVM3ngr71t-23" style="edgeStyle=orthogonalEdgeStyle;rounded=0;orthogonalLoop=1;jettySize=auto;html=1;exitX=0;exitY=0.5;exitDx=0;exitDy=0;entryX=0.592;entryY=0;entryDx=0;entryDy=0;entryPerimeter=0;" edge="1" parent="WIyWlLk6GJQsqaUBKTNV-1" source="MhJgOWiJ7qTVM3ngr71t-13" target="MhJgOWiJ7qTVM3ngr71t-18">
          <mxGeometry relative="1" as="geometry" />
        </mxCell>
        <mxCell id="MhJgOWiJ7qTVM3ngr71t-24" value="false" style="edgeLabel;html=1;align=center;verticalAlign=middle;resizable=0;points=[];" vertex="1" connectable="0" parent="MhJgOWiJ7qTVM3ngr71t-23">
          <mxGeometry x="0.0459" y="2" relative="1" as="geometry">
            <mxPoint as="offset" />
          </mxGeometry>
        </mxCell>
        <mxCell id="MhJgOWiJ7qTVM3ngr71t-13" value="a &amp;gt; c" style="rhombus;whiteSpace=wrap;html=1;" vertex="1" parent="WIyWlLk6GJQsqaUBKTNV-1">
          <mxGeometry x="590" y="270" width="80" height="80" as="geometry" />
        </mxCell>
        <mxCell id="MhJgOWiJ7qTVM3ngr71t-17" value="output a" style="shape=parallelogram;perimeter=parallelogramPerimeter;whiteSpace=wrap;html=1;fixedSize=1;" vertex="1" parent="WIyWlLk6GJQsqaUBKTNV-1">
          <mxGeometry x="650" y="380" width="120" height="60" as="geometry" />
        </mxCell>
        <mxCell id="MhJgOWiJ7qTVM3ngr71t-18" value="output&amp;nbsp; c" style="shape=parallelogram;perimeter=parallelogramPerimeter;whiteSpace=wrap;html=1;fixedSize=1;" vertex="1" parent="WIyWlLk6GJQsqaUBKTNV-1">
          <mxGeometry x="480" y="380" width="120" height="60" as="geometry" />
        </mxCell>
        <mxCell id="MhJgOWiJ7qTVM3ngr71t-20" value="" style="ellipse;whiteSpace=wrap;html=1;" vertex="1" parent="WIyWlLk6GJQsqaUBKTNV-1">
          <mxGeometry x="350" y="460" width="120" height="80" as="geometry" />
        </mxCell>
        <mxCell id="MhJgOWiJ7qTVM3ngr71t-26" value="output b" style="shape=parallelogram;perimeter=parallelogramPerimeter;whiteSpace=wrap;html=1;fixedSize=1;" vertex="1" parent="WIyWlLk6GJQsqaUBKTNV-1">
          <mxGeometry x="240" y="380" width="120" height="60" as="geometry" />
        </mxCell>
        <mxCell id="MhJgOWiJ7qTVM3ngr71t-27" value="output c" style="shape=parallelogram;perimeter=parallelogramPerimeter;whiteSpace=wrap;html=1;fixedSize=1;" vertex="1" parent="WIyWlLk6GJQsqaUBKTNV-1">
          <mxGeometry x="70" y="380" width="120" height="60" as="geometry" />
        </mxCell>
      </root>
    </mxGraphModel>
  </diagram>
</mxfile>
